<svg width="60" height="60" viewBox="0 0 60 60" fill="none" xmlns="http://www.w3.org/2000/svg">
<path d="M49.6597 3.77219L31.6197 21.8121C30.6878 22.7441 29.7114 23.2988 28.8017 23.6317C27.8697 23.9645 27.0265 24.0533 26.3165 24.0533C22.5665 24.0533 18.6611 21.213 18.6611 16.4423V4.63757H25.8949V13.6464C25.8949 14.2678 26.2721 14.8225 26.8268 15.0444C27.0043 15.1331 27.204 15.1553 27.4037 15.1553C27.781 15.1553 28.1804 15 28.4688 14.7115L43.2247 0C45.5324 0.998521 47.6848 2.26331 49.6818 3.77219H49.6597Z" fill="#235CFF"/>
<path d="M59.9998 43.2238C59.0012 45.5315 57.7143 47.706 56.2276 49.6809L38.1876 31.6187C37.2557 30.6868 36.7009 29.7326 36.3681 28.8007C36.0353 27.8687 35.9243 27.0255 35.9243 26.3155C35.9243 22.5655 38.7867 18.6602 43.5353 18.6602H55.34V25.8939H46.3311C45.7098 25.8939 45.1551 26.2711 44.9332 26.8258C44.8444 27.0034 44.8222 27.2031 44.8222 27.4028C44.8222 27.8022 44.9776 28.1794 45.266 28.4678L59.9998 43.2016V43.2238Z" fill="#235CFF"/>
<path d="M41.3389 43.5582V55.3629H34.1051V46.3319C34.1051 45.7328 33.7501 45.178 33.1732 44.934C32.9957 44.8452 32.7738 44.823 32.5962 44.823C32.1968 44.823 31.8196 44.9783 31.5312 45.2668L16.7974 60.0005C14.4897 59.002 12.3152 57.715 10.3403 56.2283L28.4025 38.1884C29.3122 37.2564 30.2886 36.7017 31.2205 36.3689C32.1525 36.036 32.9957 35.9473 33.7057 35.9473C37.4557 35.9473 41.361 38.8097 41.361 43.5582H41.3389Z" fill="#235CFF"/>
<path d="M24.0532 33.683C24.0532 37.433 21.1908 41.3384 16.4423 41.3384H4.63757V34.1046H13.6464C14.2677 34.1046 14.8225 33.7274 15.0444 33.1727C15.1331 32.9952 15.1553 32.7955 15.1553 32.5958C15.1553 32.2185 15 31.8191 14.7115 31.5307L0 16.7969C0.99852 14.4893 2.26331 12.3147 3.77219 10.3398L21.8121 28.3798C22.7441 29.3117 23.2988 30.2881 23.6317 31.1978C23.9645 32.1298 24.0532 32.973 24.0532 33.683Z" fill="#235CFF"/>
</svg>
